<svg xmlns="http://www.w3.org/2000/svg" viewBox="0 0 1289.85 104.95"><defs><style>.cls-1{fill:#fff;}</style></defs><g id="Calque_2" data-name="Calque 2"><g id="Calque_1-2" data-name="Calque 1"><path class="cls-1" d="M0,99.34V.08H149.19c5.05-.24,21.4-.27,33.82,5.2q11.81,5.2,11.81,17.88,0,9.6-6.2,15.28t-19.28,7.4v.27q14.13,1.86,22.21,8.34a20.6,20.6,0,0,1,8.07,16.87q0,16.41-14,22.22t-36.55,5.8H0ZM135.45,40.5c3,0,5.27-.46,6.73-1.4a4.9,4.9,0,0,0,2.21-4.47q0-3.47-2.07-5.07C140.94,28.5,138.83,28,136,28H54.57V40.5h80.88Zm.26,31q4.93,0,7.28-1.67t2.33-5.67a5.58,5.58,0,0,0-2.53-5.07c-1.7-1.07-4.23-1.6-7.61-1.6H54.57v14h81.14Z"/><path class="cls-1" d="M361.19,99.34H301L297,84.4H265.26L261.4,99.34h-60l38-99.26H322ZM279.94,28.63,272.2,58.25h17.88l-7.87-29.62-.8-4.14h-.67Z"/><path class="cls-1" d="M369.87,99.34V.08h77.51q34.29,0,50.17,13.34t15.88,36.42q0,22.95-15.61,36.23T447.38,99.34ZM437.78,68q8.67,0,13.47-4.2t4.8-13.95q0-9.87-4.8-14.14t-13.61-4.27h-11.2V68Z"/><path class="cls-1" d="M607.49,99.34H543.71L516.49.08H570.4l12.14,63.51.4,2.53h.26l.67-3.07,14.41-63h44.56l14.41,63,.67,2.94h.27l.4-2.4,12-63.51h54L697.41,99.34H633.64l-12.55-56.7-.4-2.27h-.26l-.4,2.27Z"/><path class="cls-1" d="M1001.4,99.34V.08h79.39q30.15,0,43.49,9t13.34,24.49a26.25,26.25,0,0,1-5.8,17.21q-5.8,7.06-17,9.87v.13a32.86,32.86,0,0,1,9.47,4.27,16.28,16.28,0,0,1,5.2,6.27A53,53,0,0,1,1133,82.13l.8,3.07a80.8,80.8,0,0,0,4.14,14.14h-55.5q-1.87-3.74-3.07-12.67l-.53-2.94a9.2,9.2,0,0,0-3.34-5.94q-2.67-2.06-8.67-2.06H1058V99.34Zm70.31-51.1c3.38,0,6-.75,7.74-2.27a7.93,7.93,0,0,0,2.67-6.4,7.34,7.34,0,0,0-2.73-6.14q-2.75-2.13-7.68-2.13H1058V48.24Z"/><path class="cls-1" d="M1204.47,99.34h-56.58V.08h56.58V34.23h7.47L1225.15.08h60.44L1260,48.24v1.07l29.88,50h-61.64l-16.27-33.89h-7.47Z"/><path class="cls-1" d="M938.53,104h-160a52,52,0,0,1-52-52h0a52,52,0,0,1,52-52h160a52,52,0,0,1,52,52h0A52,52,0,0,1,938.53,104Zm-6-50.46V50.49A14.46,14.46,0,0,0,918.07,36H798a14.45,14.45,0,0,0-14.46,14.46v3.08A14.46,14.46,0,0,0,798,68H918.07A14.47,14.47,0,0,0,932.53,53.57Z"/><path class="cls-1" d="M747.91,91.6q-19.29-13.34-19.28-38.69V52q0-25.21,19.34-38.56T803.48.08H915.22c14.4.07,36.69.18,54.63,13.34a45,45,0,0,1,12.59,13.05q6.62,10.71,6.62,25.51v.93q0,25.35-19.28,38.69c-17.64,12.21-38.38,13.06-52.5,13.32-.76,0-112.71,0-113.94,0C787.35,104.91,766,104.11,747.91,91.6ZM927.09,64.79q4.6-4.28,4.6-11.88V52q0-7.6-4.6-11.74c-4.3-3.87-9.84-4.08-12.08-4.13H803.34c-2.07,0-8.27.12-12.74,4.07Q786,44.24,786,52v.93q0,7.74,4.6,11.94t12.74,4.21l111.87,0C917.31,69,922.83,68.73,927.09,64.79Z"/></g></g></svg>